HIERARCHY
ROOT Hips
{
  OFFSET -139.75 36.7822 -148.096
  CHANNELS 6 Xposition Yposition Zposition Zrotation Xrotation Yrotation
  JOINT LeftHip
  {
    OFFSET 3.43 0 0
    CHANNELS 6 Xposition Yposition Zposition Zrotation Xrotation Yrotation
    JOINT LeftKnee
    {
      OFFSET 0 -18.47 0
      CHANNELS 6 Xposition Yposition Zposition Zrotation Xrotation Yrotation
      JOINT LeftAnkle
      {
        OFFSET 0 -17.95 0
        CHANNELS 6 Xposition Yposition Zposition Zrotation Xrotation Yrotation
        End Site
        {
          OFFSET 0 -3.12 0
        }
      }
    }
  }
  JOINT RightHip
  {
    OFFSET -3.43 0 0
    CHANNELS 6 Xposition Yposition Zposition Zrotation Xrotation Yrotation
    JOINT RightKnee
    {
      OFFSET 0 -18.47 0
      CHANNELS 6 Xposition Yposition Zposition Zrotation Xrotation Yrotation
      JOINT RightAnkle
      {
        OFFSET 0 -17.95 0
        CHANNELS 6 Xposition Yposition Zposition Zrotation Xrotation Yrotation
        End Site
        {
          OFFSET 0 -3.12 0
        }
      }
    }
  }
  JOINT Chest
  {
    OFFSET 0 4.57 0
    CHANNELS 6 Xposition Yposition Zposition Zrotation Xrotation Yrotation
    JOINT CS_BVH
    {
      OFFSET 0 6.57 0
      CHANNELS 6 Xposition Yposition Zposition Zrotation Xrotation Yrotation
      JOINT LeftCollar
      {
        OFFSET 1.06 4.19 1.76
        CHANNELS 6 Xposition Yposition Zposition Zrotation Xrotation Yrotation
        JOINT LeftShoulder
        {
          OFFSET 5.81 0 0
          CHANNELS 6 Xposition Yposition Zposition Zrotation Xrotation Yrotation
          JOINT LeftElbow
          {
            OFFSET 0 -12.08 0
            CHANNELS 6 Xposition Yposition Zposition Zrotation Xrotation Yrotation
            JOINT LeftWrist
            {
              OFFSET 0 -9.82 0
              CHANNELS 6 Xposition Yposition Zposition Zrotation Xrotation Yrotation
              End Site
              {
                OFFSET 0 -7.37 0
              }
            }
          }
        }
      }
      JOINT RightCollar
      {
        OFFSET -1.06 4.19 1.76
        CHANNELS 6 Xposition Yposition Zposition Zrotation Xrotation Yrotation
        JOINT RightShoulder
        {
          OFFSET -6.06 0 0
          CHANNELS 6 Xposition Yposition Zposition Zrotation Xrotation Yrotation
          JOINT RightElbow
          {
            OFFSET 0 -11.08 0
            CHANNELS 6 Xposition Yposition Zposition Zrotation Xrotation Yrotation
            JOINT RightWrist
            {
              OFFSET 0 -9.82 0
              CHANNELS 6 Xposition Yposition Zposition Zrotation Xrotation Yrotation
              End Site
              {
                OFFSET 0 -7.14001 0
              }
            }
          }
        }
      }
      JOINT Neck
      {
        OFFSET 0 4.05 0
        CHANNELS 6 Xposition Yposition Zposition Zrotation Xrotation Yrotation
        JOINT Head
        {
          OFFSET 0 5.19 0
          CHANNELS 6 Xposition Yposition Zposition Zrotation Xrotation Yrotation
          End Site
          {
            OFFSET 0 4.14001 0
          }
        }
      }
    }
  }
}
MOTION
Frames:	7
Frame Time:	0.0333333
13.9508 39.4552 -16.4015 3.44814 8.24521 44.1004 3.43 -7.10543e-015 -2.13163e-014 -3.70195 -2.85468 1.0626 6.12843e-014 -18.47 7.10543e-014 -1.06381 68.0344 -3.08709 1.63425e-013 -17.95 4.61853e-013 -0.422048 -8.69064 -0.244284 -3.43 -5.68434e-014 7.10543e-015 0.800053 -29.0452 9.89303 5.32907e-014 -18.47 -1.06581e-014 0.339153 24.6698 1.77361 3.12639e-013 -17.95 0 0.785512 -9.48667 0.263755 0 4.57 -4.26326e-014 -10.5971 9.33484 -2.16953 -3.10862e-015 6.57 -3.55271e-015 -0.601381 0.489478 -3.6961 1.06 4.19 1.76 -26.8467 1.34878 -5.0155 5.81 1.42109e-014 -1.42109e-014 44.8878 9.58133 -80.7424 1.43174e-012 -12.08 -1.53477e-012 94.7533 -9.44317 42.381 2.73772e-011 -9.82 -4.78302e-011 1.13733e-009 2.19862e-010 2.12218e-009 -1.06 4.19 1.76 16.0293 0.0993873 -1.34512 -6.06 7.10543e-014 2.84217e-014 3.0836 42.6899 55.546 1.53833e-012 -11.08 3.13705e-012 -60.0897 -22.9177 -14.9152 3.7133e-011 -9.82 6.74127e-011 -7.35579e-010 2.89368e-008 -7.70461e-010 -1.08802e-014 4.05 0 -1.03766 -5.70449 -0.442853 -3.90799e-014 5.19 -1.42109e-014 1.05674 -13.3956 -0.862946 
10.6441 40.1883 -19.6885 0.496554 9.71486 44.1359 3.43 -7.10543e-015 -2.13163e-014 -5.3952 -1.8703 0.173818 6.12843e-014 -18.47 7.10543e-014 1.52715 56.4663 -3.6473 1.63425e-013 -17.95 4.61853e-013 -0.699901 -9.04103 -0.24518 -3.43 -5.68434e-014 7.10543e-015 -0.742681 -30.6068 6.98136 5.32907e-014 -18.47 -1.06581e-014 -0.839873 13.8046 1.17236 3.12639e-013 -17.95 0 1.21398 -9.69557 0.247522 0 4.57 -4.26326e-014 -10.6651 7.9132 -2.79723 -3.10862e-015 6.57 -3.55271e-015 2.43364 0.611708 -4.28221 1.06 4.19 1.76 -27.854 1.40972 -5.05794 5.81 1.42109e-014 -1.42109e-014 48.5174 7.18321 -83.4235 1.43174e-012 -12.08 -1.53477e-012 101.813 -7.13371 45.2788 2.73772e-011 -9.82 -4.78302e-011 1.13733e-009 2.19862e-010 2.12218e-009 -1.06 4.19 1.76 14.9623 0.147283 -0.964748 -6.06 7.10543e-014 2.84217e-014 4.81235 44.325 53.485 1.53833e-012 -11.08 3.13705e-012 -63.4913 -23.534 -16.327 3.7133e-011 -9.82 6.74127e-011 -7.35579e-010 2.89368e-008 -7.70461e-010 -1.08802e-014 4.05 0 -2.86924 -8.58469 0.119194 -3.90799e-014 5.19 -1.42109e-014 2.0496 -11.2469 -0.813901 
7.6742 40.0095 -22.8135 0.189643 11.9818 42.4637 3.43 -7.10543e-015 -2.13163e-014 -8.36432 -1.96476 1.62336 6.12843e-014 -18.47 7.10543e-014 0.787404 47.6824 -3.63449 1.63425e-013 -17.95 4.61853e-013 -0.186814 -10.8943 -0.293533 -3.43 -5.68434e-014 7.10543e-015 -3.06666 -34.6531 8.53467 5.32907e-014 -18.47 -1.06581e-014 -1.05965 21.7367 1.35263 3.12639e-013 -17.95 0 1.09995 -8.47987 0.238018 0 4.57 -4.26326e-014 -10.9347 5.90709 -3.19422 -3.10862e-015 6.57 -3.55271e-015 1.0169 -0.501533 -3.52063 1.06 4.19 1.76 -27.7424 1.23439 -4.38869 5.81 1.42109e-014 -1.42109e-014 50.5046 6.77874 -86.089 1.43174e-012 -12.08 -1.53477e-012 105.616 -5.72374 46.734 2.73772e-011 -9.82 -4.78302e-011 1.13733e-009 2.19862e-010 2.12218e-009 -1.06 4.19 1.76 14.7509 0.234939 -0.23827 -6.06 7.10543e-014 2.84217e-014 3.78065 44.8369 55.2581 1.53833e-012 -11.08 3.13705e-012 -66.3743 -23.9951 -17.5455 3.7133e-011 -9.82 6.74127e-011 -7.35579e-010 2.89368e-008 -7.70461e-010 -1.08802e-014 4.05 0 -2.87881 -11.9569 0.337473 -3.90799e-014 5.19 -1.42109e-014 2.21373 -9.22509 -0.545663 
4.4477 39.3477 -26.0039 0.400368 12.4558 40.2111 3.43 -7.10543e-015 -2.13163e-014 -10.5072 -5.18631 1.35605 6.12843e-014 -18.47 7.10543e-014 -0.777156 45.3007 -2.78181 1.63425e-013 -17.95 4.61853e-013 -0.0977801 -11.7088 -0.308485 -3.43 -5.68434e-014 7.10543e-015 -3.13268 -39.0169 11.5803 5.32907e-014 -18.47 -1.06581e-014 0.320483 40.9232 1.26032 3.12639e-013 -17.95 0 1.17429 -8.45939 0.242041 0 4.57 -4.26326e-014 -11.2268 5.68421 -1.93582 -3.10862e-015 6.57 -3.55271e-015 0.802997 -0.447163 -2.15903 1.06 4.19 1.76 -27.9928 1.36977 -4.87456 5.81 1.42109e-014 -1.42109e-014 48.192 8.45495 -85.5423 1.43174e-012 -12.08 -1.53477e-012 101.639 -7.19572 45.2105 2.73772e-011 -9.82 -4.78302e-011 1.13733e-009 2.19862e-010 2.12218e-009 -1.06 4.19 1.76 14.6614 0.181633 -0.67382 -6.06 7.10543e-014 2.84217e-014 -0.904429 41.2964 59.9404 1.53833e-012 -11.08 3.13705e-012 -65.601 -23.8764 -17.2171 3.7133e-011 -9.82 6.74127e-011 -7.35579e-010 2.89368e-008 -7.70461e-010 -1.08802e-014 4.05 0 -3.03344 -12.246 0.0500476 -3.90799e-014 5.19 -1.42109e-014 2.04563 -9.66553 -0.815115 
0.995796 38.4688 -29.1288 -0.0366273 8.56715 39.3038 3.43 -7.10543e-015 -2.13163e-014 -8.62412 -7.78627 0.999229 6.12843e-014 -18.47 7.10543e-014 -1.44724 46.6027 -1.76373 1.63425e-013 -17.95 4.61853e-013 -0.422351 -10.5635 -0.286384 -3.43 -5.68434e-014 7.10543e-015 -0.441971 -38.0934 13.9677 5.32907e-014 -18.47 -1.06581e-014 6.04577 60.1482 -1.97945 3.12639e-013 -17.95 0 1.44008 -8.22376 0.228473 0 4.57 -4.26326e-014 -7.38133 9.88242 -0.930467 -3.10862e-015 6.57 -3.55271e-015 -0.559036 -1.03836 -1.42711 1.06 4.19 1.76 -28.2944 1.46776 -5.19654 5.81 1.42109e-014 -1.42109e-014 43.4833 12.3075 -81.4831 1.43174e-012 -12.08 -1.53477e-012 93.2835 -9.87378 41.7489 2.73772e-011 -9.82 -4.78302e-011 1.13733e-009 2.19862e-010 2.12218e-009 -1.06 4.19 1.76 15.998 0.0497274 -1.72037 -6.06 7.10543e-014 2.84217e-014 -6.84225 34.4298 66.0653 1.53833e-012 -11.08 3.13705e-012 -61.1298 -23.115 -15.3433 3.7133e-011 -9.82 6.74127e-011 -7.35579e-010 2.89368e-008 -7.70461e-010 -1.08802e-014 4.05 0 -1.61627 -10.1505 -0.636837 -3.90799e-014 5.19 -1.42109e-014 1.3909 -10.9452 -1.15215 
-2.41167 37.2811 -32.2064 -0.588164 6.15374 39.1237 3.43 -7.10543e-015 -2.13163e-014 -6.69939 -14.0879 0.0595106 6.12843e-014 -18.47 7.10543e-014 -2.19345 51.7499 -1.19658 1.63425e-013 -17.95 4.61853e-013 -0.644615 -9.80127 -0.264686 -3.43 -5.68434e-014 7.10543e-015 -0.154811 -36.0811 13.7651 5.32907e-014 -18.47 -1.06581e-014 24.3328 76.3917 -17.2611 3.12639e-013 -17.95 0 1.9311 -7.10126 0.177697 0 4.57 -4.26326e-014 -5.38058 12.358 0.00597321 -3.10862e-015 6.57 -3.55271e-015 0.00753904 -1.90907 -0.719255 1.06 4.19 1.76 -31.3233 1.44774 -4.5781 5.81 1.42109e-014 -1.42109e-014 38.5518 16.8307 -76.177 1.43174e-012 -12.08 -1.53477e-012 83.4164 -12.2948 37.2951 2.73772e-011 -9.82 -4.78302e-011 1.13733e-009 2.19862e-010 2.12218e-009 -1.06 4.19 1.76 16.449 -0.00375054 -2.09817 -6.06 7.10543e-014 2.84217e-014 -11.1509 28.0671 70.2753 1.53833e-012 -11.08 3.13705e-012 -59.0384 -22.7101 -14.4861 3.7133e-011 -9.82 6.74127e-011 -7.35579e-010 2.89368e-008 -7.70461e-010 -1.08802e-014 4.05 0 -3.32412 -8.00669 -1.11321 -3.90799e-014 5.19 -1.42109e-014 2.13975 -12.8213 -2.14276 
-5.74151 36.1632 -35.3165 -1.30386 6.14745 38.14 3.43 -7.10543e-015 -2.13163e-014 -5.8207 -24.3651 -1.98506 6.12843e-014 -18.47 7.10543e-014 -5.47929 57.5363 0.529638 1.63425e-013 -17.95 4.61853e-013 -0.80314 -8.34426 -0.219652 -3.43 -5.68434e-014 7.10543e-015 -1.52485 -33.0233 12.8556 5.32907e-014 -18.47 -1.06581e-014 85.231 84.173 -77.1609 3.12639e-013 -17.95 0 2.41223 -6.12585 0.125768 0 4.57 -4.26326e-014 -4.06274 11.3553 0.916561 -3.10862e-015 6.57 -3.55271e-015 -0.537443 -0.7339 0.661156 1.06 4.19 1.76 -32.945 1.32043 -3.90652 5.81 1.42109e-014 -1.42109e-014 33.7486 21.1129 -67.9285 1.43174e-012 -12.08 -1.53477e-012 73.1235 -13.9393 32.356 2.73772e-011 -9.82 -4.78302e-011 1.13733e-009 2.19862e-010 2.12218e-009 -1.06 4.19 1.76 16.9669 -0.0194374 -2.18127 -6.06 7.10543e-014 2.84217e-014 -15.7162 21.0141 77.0361 1.53833e-012 -11.08 3.13705e-012 -58.1074 -22.5186 -14.1084 3.7133e-011 -9.82 6.74127e-011 -7.35579e-010 2.89368e-008 -7.70461e-010 -1.08802e-014 4.05 0 -3.41025 -9.52297 -1.99229 -3.90799e-014 5.19 -1.42109e-014 1.9291 -11.1642 -2.94952 
